<svg xmlns="http://www.w3.org/2000/svg" width="139.398" height="38.198" viewBox="0 0 139.398 38.198">
  <g id="logo" transform="translate(-199.434 -393.898)">
    <path id="Path_13" data-name="Path 13" d="M260.806,409.234h2.885l-2.885-7.086v-7.339h6.428l11.237,27.232h-10.63l-2.227-6.125h-4.809Zm-2.885,0h2.885v6.681h-5.163l-2.227,6.125H242.128l12.553-27.232h6.125v7.339Z" transform="translate(-12.679 -0.27)" fill="#bc2026" fill-rule="evenodd"/>
    <path id="Path_14" data-name="Path 14" d="M226.918,395.094l.658,8.4c-2.581-1.62-16.4-4.5-17.412,4.809-.607,4.5,2.885,8,8.4,6.732V412.81h-2.581v-7.086h12.5v16.1c-20.247,3.9-30.168-2.986-28.953-15.084C200.85,393.829,215.327,392.26,226.918,395.094Z" fill="#bc2026" fill-rule="evenodd"/>
    <path id="Path_15" data-name="Path 15" d="M365.172,415.3a6.2,6.2,0,0,0,6.226-6.53c0-4.353-3.037-6.884-6.226-6.985v-7.694h.051c12,0,17.615,7.086,17.615,14.122,0,7.238-5.872,14.679-17.159,14.679a1.722,1.722,0,0,1-.506-.051ZM359,407.2c0,.456-.051.911-.051,1.316,0,4.606,2.986,6.783,6.074,6.783h.152v7.542h-.607c-11.288,0-16.957-7.289-16.957-14.477,0-7.086,5.568-14.274,17.564-14.274v7.694h-.2C362.388,401.782,359.807,403.4,359,407.2Z" transform="translate(-44.005 -0.057)" fill="#bc2026" fill-rule="evenodd"/>
    <path id="Path_16" data-name="Path 16" d="M317.181,445.409v-.557c1.164,0,1.822-.81,1.822-2.126s-.658-2.126-1.822-2.126h0v-.557h0a2.477,2.477,0,0,1,2.48,2.683,2.45,2.45,0,0,1-2.48,2.683Zm0-5.77v-.911h.709l-.709.911Zm7.188,2.885v.607h1.569v.456a1.647,1.647,0,0,1-1.67,1.265c-1.012,0-1.67-.81-1.67-2.075,0-1.367.658-2.177,1.772-2.177a1.373,1.373,0,0,1,1.518,1.063h.658a1.933,1.933,0,0,0-2.126-1.62,2.45,2.45,0,0,0-2.531,2.733,2.725,2.725,0,0,0,.709,1.923,1.985,1.985,0,0,0,1.67.709,1.838,1.838,0,0,0,1.67-.759l.253.709h.4v-2.835Zm5.416-2.379h-.658v5.214h.658v-5.214Zm3.29.557h3.138v-.557h-3.8v5.214h3.9v-.607h-3.239v-1.822h2.835v-.557h-2.835Zm-15.894-1.974v.911h-.354l.354-.911Zm0,1.316v.557c-1.164,0-1.873.81-1.873,2.126s.709,2.126,1.873,2.126v.557a2.423,2.423,0,0,1-2.48-2.683,2.449,2.449,0,0,1,2.48-2.683Zm-12.5,5.365v-.557c1.114,0,1.822-.81,1.822-2.126s-.709-2.126-1.822-2.126v-.557a2.477,2.477,0,0,1,2.48,2.683,2.45,2.45,0,0,1-2.48,2.683Zm5.568-5.264h-.658v5.214h3.442v-.607h-2.784Zm-5.568-.1v.557c-1.215,0-1.873.81-1.873,2.126s.658,2.126,1.873,2.126v.557a2.687,2.687,0,0,1,0-5.365Zm-61.3,3.7v-.506h.861l-.81-2.43-.051.051v-.709h.4l1.873,5.214h-.709l-.557-1.62Zm8.5-2.126a1.924,1.924,0,0,0-2.075-1.569c-1.468,0-2.379,1.063-2.379,2.733s.911,2.632,2.328,2.632a2.076,2.076,0,0,0,2.227-2.025h-.607a1.535,1.535,0,0,1-1.62,1.468c-1.063,0-1.67-.759-1.67-2.075,0-1.367.607-2.177,1.721-2.177a1.337,1.337,0,0,1,1.417,1.012Zm-2.328-1.974h.557l.607-.911h-.506l-.4.607-.354-.607h-.506l.607.911Zm5.517.506h-.709v5.214h.658v-4.252l2.683,4.252h.759v-5.214h-.709V444.3l-2.683-4.151Zm6.681.557h3.088v-.557h-3.8v5.214h3.9v-.607h-3.189v-1.822h2.835v-.557h-2.835V440.7Zm1.164-1.974-.3.911h.354l.658-.911Zm9.465,1.974h1.67v-.557h-4v.557h1.67v4.657h.658V440.7Zm4.353,0h3.088v-.557h-3.8v5.214h3.847v-.607h-3.138v-1.822h2.784v-.557h-2.784V440.7Zm9.617.911a1.924,1.924,0,0,0-2.075-1.569c-1.468,0-2.379,1.063-2.379,2.733s.911,2.632,2.379,2.632a2.006,2.006,0,0,0,2.177-2.025H285.8a1.449,1.449,0,0,1-1.519,1.468c-1.114,0-1.721-.759-1.721-2.075,0-1.367.607-2.177,1.721-2.177a1.3,1.3,0,0,1,1.417,1.012Zm3.138-1.468h-.658v5.214h.658v-2.48h2.835v2.48h.658v-5.214h-.658v2.177h-2.835v-2.177Zm6.833,0h-.759v5.214h.709v-4.252l2.733,4.252h.658v-5.214h-.607V444.3Zm-52.946,0v.709l-.81,2.379h.81v.506h-1.012l-.506,1.62H241.1l1.923-5.214Zm-13.717,2.986v-.557a1.739,1.739,0,0,0,.81-.1.8.8,0,0,0,.557-.86c0-.4-.2-.81-.506-.81a2.222,2.222,0,0,0-.759-.1h-.1v-.557h.2c.759,0,.962.051,1.265.253a1.373,1.373,0,0,1,.557,1.164,1.314,1.314,0,0,1-.962,1.316c.557.152.709.456.759,1.265.1.86.1.911.3,1.215h-.759a2.014,2.014,0,0,1-.152-.81c-.051-.86-.152-1.063-.4-1.265a1.511,1.511,0,0,0-.81-.152Zm5.264-2.986h-.861v5.214h.709v-4.151l1.569,4.151h.557l1.62-4.151v4.151h.658v-5.214h-.86l-1.67,4.353Zm-5.264,0v.557h-1.417v1.873h1.417v.557h-1.417v2.227h-.658v-5.214Zm-6.985,5.264v-.557c1.114,0,1.822-.81,1.822-2.126s-.709-2.126-1.772-2.126h-.051v-.557h.051a2.689,2.689,0,0,1-.051,5.365Zm-17.311-5.264h-.607v5.214h.607v-5.214Zm17.311-.1v.557c-1.215,0-1.873.81-1.873,2.126s.709,2.126,1.873,2.126v.557a2.46,2.46,0,0,1-2.531-2.683,2.487,2.487,0,0,1,2.531-2.683Zm-13.97.1H208v5.214h.607v-4.252l2.784,4.252h.709v-5.214h-.658V444.3l-2.733-4.151Zm6.631.557h2.936v-.557h-3.543v5.214h.607v-2.48h2.43v-.557h-2.43Z" transform="translate(-1.582 -13.314)" fill="#1a1818" fill-rule="evenodd"/>
    <path id="Path_17" data-name="Path 17" d="M295.408,394.736h14.375l2.683,15.944,3.341-15.944H330.03v27.232h-9.212V404.961l-3.847,17.007h-9.06l-3.8-17.311v17.311h-8.706Z" transform="translate(-28.503 -0.249)" fill="#bc2026" fill-rule="evenodd"/>
  </g>
</svg>
